<svg width="278" height="399" viewBox="0 0 278 399" fill="none" xmlns="http://www.w3.org/2000/svg">
<rect x="3.69238" width="265.144" height="6.08752" rx="3.04376" transform="rotate(37.3379 3.69238 0)" fill="#B8E4DA"/>
<rect x="180.008" y="108.738" width="147.046" height="6.08752" rx="3.04376" transform="rotate(37.3379 180.008 108.738)" fill="#B8E4DA"/>
<rect x="163.987" y="319.43" width="147.046" height="6.08752" rx="3.04376" transform="rotate(37.3379 163.987 319.43)" fill="#B8E4DA"/>
<rect x="116.015" y="286.595" width="47.0744" height="6.08752" rx="3.04376" transform="rotate(37.3379 116.015 286.595)" fill="#B8E4DA"/>
<rect x="53.2334" y="11.9346" width="147.046" height="6.08752" rx="3.04376" transform="rotate(37.3379 53.2334 11.9346)" fill="#B8E4DA"/>
<rect x="151.522" y="61.2256" width="147.046" height="6.08752" rx="3.04376" transform="rotate(37.3379 151.522 61.2256)" fill="#B8E4DA"/>
<rect x="142.856" y="28.8848" width="147.046" height="6.08752" rx="3.04376" transform="rotate(37.3379 142.856 28.8848)" fill="#B8E4DA"/>
<rect x="211.45" y="331.921" width="147.046" height="6.08752" rx="3.04376" transform="rotate(37.3379 211.45 331.921)" fill="#B8E4DA"/>
<rect x="84.6758" y="235.118" width="147.046" height="6.08752" rx="3.04376" transform="rotate(37.3379 84.6758 235.118)" fill="#B8E4DA"/>
<rect x="182.964" y="284.409" width="147.046" height="6.08752" rx="3.04376" transform="rotate(37.3379 182.964 284.409)" fill="#B8E4DA"/>
<rect x="126.4" y="367.314" width="147.046" height="6.08752" rx="3.04376" transform="rotate(37.3379 126.4 367.314)" fill="#B8E4DA"/>
<rect x="102.879" y="373.617" width="147.046" height="6.08752" rx="3.04376" transform="rotate(37.3379 102.879 373.617)" fill="#B8E4DA"/>
<rect x="78.4277" y="334.48" width="47.0744" height="6.08752" rx="3.04376" transform="rotate(37.3379 78.4277 334.48)" fill="#B8E4DA"/>
<rect x="173.863" y="379.805" width="147.046" height="6.08752" rx="3.04376" transform="rotate(37.3379 173.863 379.805)" fill="#B8E4DA"/>
<rect x="145.377" y="332.294" width="147.046" height="6.08752" rx="3.04376" transform="rotate(37.3379 145.377 332.294)" fill="#B8E4DA"/>
<rect x="187.26" y="188.723" width="147.046" height="6.08752" rx="3.04376" transform="rotate(37.3379 187.26 188.723)" fill="#B8E4DA"/>
<rect x="168.831" y="176.086" width="8.92669" height="6.08752" rx="3.04376" transform="rotate(37.3379 168.831 176.086)" fill="#B8E4DA"/>
<rect x="85.2227" y="114.43" width="92.5672" height="6.08752" rx="3.04376" transform="rotate(37.3379 85.2227 114.43)" fill="#B8E4DA"/>
<rect x="111.707" y="207.393" width="92.5672" height="6.08752" rx="3.04376" transform="rotate(37.3379 111.707 207.393)" fill="#B8E4DA"/>
<rect x="226.216" y="170.408" width="197.261" height="6.08752" rx="3.04376" transform="rotate(37.3379 226.216 170.408)" fill="#B8E4DA"/>
<rect x="209.075" y="182.878" width="197.261" height="6.08752" rx="3.04376" transform="rotate(37.3379 209.075 182.878)" fill="#B8E4DA"/>
<rect x="44.1289" y="55.3391" width="197.261" height="6.08752" rx="3.04376" transform="rotate(37.3379 44.1289 55.3391)" fill="#B8E4DA"/>
<rect x="28.9014" y="94.0815" width="265.144" height="6.08752" rx="3.04376" transform="rotate(37.3379 28.9014 94.0815)" fill="#B8E4DA"/>
<rect x="212.47" y="282.805" width="147.046" height="6.08752" rx="3.04376" transform="rotate(37.3379 212.47 282.805)" fill="#B8E4DA"/>
<rect x="194.04" y="270.168" width="8.92669" height="6.08752" rx="3.04376" transform="rotate(37.3379 194.04 270.168)" fill="#B8E4DA"/>
<rect x="251.425" y="264.489" width="197.261" height="6.08752" rx="3.04376" transform="rotate(37.3379 251.425 264.489)" fill="#B8E4DA"/>
<rect x="234.284" y="276.96" width="197.261" height="6.08752" rx="3.04376" transform="rotate(37.3379 234.284 276.96)" fill="#B8E4DA"/>
<rect x="69.3389" y="149.42" width="197.261" height="6.08752" rx="3.04376" transform="rotate(37.3379 69.3389 149.42)" fill="#B8E4DA"/>
</svg>
