<svg width="256" height="394" viewBox="0 0 256 394" fill="none" xmlns="http://www.w3.org/2000/svg">
<rect x="252.519" y="393.834" width="250.037" height="5.74067" rx="2.87034" transform="rotate(-142.662 252.519 393.834)" fill="#B8E4DA"/>
<rect x="86.248" y="291.292" width="138.668" height="5.74067" rx="2.87034" transform="rotate(-142.662 86.248 291.292)" fill="#B8E4DA"/>
<rect x="101.356" y="92.6047" width="138.668" height="5.74067" rx="2.87034" transform="rotate(-142.662 101.356 92.6047)" fill="#B8E4DA"/>
<rect x="146.595" y="123.568" width="44.3923" height="5.74067" rx="2.87034" transform="rotate(-142.662 146.595 123.568)" fill="#B8E4DA"/>
<rect x="205.799" y="382.579" width="138.668" height="5.74067" rx="2.87034" transform="rotate(-142.662 205.799 382.579)" fill="#B8E4DA"/>
<rect x="113.111" y="336.097" width="138.668" height="5.74067" rx="2.87034" transform="rotate(-142.662 113.111 336.097)" fill="#B8E4DA"/>
<rect x="121.283" y="366.595" width="138.668" height="5.74067" rx="2.87034" transform="rotate(-142.662 121.283 366.595)" fill="#B8E4DA"/>
<rect x="56.5977" y="80.8252" width="138.668" height="5.74067" rx="2.87034" transform="rotate(-142.662 56.5977 80.8252)" fill="#B8E4DA"/>
<rect x="176.149" y="172.113" width="138.668" height="5.74067" rx="2.87034" transform="rotate(-142.662 176.149 172.113)" fill="#B8E4DA"/>
<rect x="83.4609" y="125.63" width="138.668" height="5.74067" rx="2.87034" transform="rotate(-142.662 83.4609 125.63)" fill="#B8E4DA"/>
<rect x="136.803" y="47.4481" width="138.668" height="5.74067" rx="2.87034" transform="rotate(-142.662 136.803 47.4481)" fill="#B8E4DA"/>
<rect x="158.982" y="41.5049" width="138.668" height="5.74067" rx="2.87034" transform="rotate(-142.662 158.982 41.5049)" fill="#B8E4DA"/>
<rect x="182.041" y="78.4117" width="44.3923" height="5.74067" rx="2.87034" transform="rotate(-142.662 182.041 78.4117)" fill="#B8E4DA"/>
<rect x="92.0439" y="35.6682" width="138.668" height="5.74067" rx="2.87034" transform="rotate(-142.662 92.0439 35.6682)" fill="#B8E4DA"/>
<rect x="211.595" y="126.956" width="138.668" height="5.74067" rx="2.87034" transform="rotate(-142.662 211.595 126.956)" fill="#B8E4DA"/>
<rect x="118.907" y="80.473" width="138.668" height="5.74067" rx="2.87034" transform="rotate(-142.662 118.907 80.473)" fill="#B8E4DA"/>
<rect x="79.4092" y="215.863" width="138.668" height="5.74067" rx="2.87034" transform="rotate(-142.662 79.4092 215.863)" fill="#B8E4DA"/>
<rect x="96.7891" y="227.781" width="8.41808" height="5.74067" rx="2.87034" transform="rotate(-142.662 96.7891 227.781)" fill="#B8E4DA"/>
<rect x="175.633" y="285.924" width="87.2931" height="5.74067" rx="2.87034" transform="rotate(-142.662 175.633 285.924)" fill="#B8E4DA"/>
<rect x="150.657" y="198.258" width="87.2931" height="5.74067" rx="2.87034" transform="rotate(-142.662 150.657 198.258)" fill="#B8E4DA"/>
<rect x="42.6738" y="233.135" width="186.021" height="5.74067" rx="2.87034" transform="rotate(-142.662 42.6738 233.135)" fill="#B8E4DA"/>
<rect x="58.8369" y="221.376" width="186.021" height="5.74067" rx="2.87034" transform="rotate(-142.662 58.8369 221.376)" fill="#B8E4DA"/>
<rect x="214.386" y="341.648" width="186.021" height="5.74067" rx="2.87034" transform="rotate(-142.662 214.386 341.648)" fill="#B8E4DA"/>
<rect x="228.746" y="305.113" width="250.037" height="5.74067" rx="2.87034" transform="rotate(-142.662 228.746 305.113)" fill="#B8E4DA"/>
<rect x="55.6367" y="127.142" width="138.668" height="5.74067" rx="2.87034" transform="rotate(-142.662 55.6367 127.142)" fill="#B8E4DA"/>
<rect x="73.0156" y="139.06" width="8.41808" height="5.74067" rx="2.87034" transform="rotate(-142.662 73.0156 139.06)" fill="#B8E4DA"/>
<rect x="18.9004" y="144.415" width="186.021" height="5.74067" rx="2.87034" transform="rotate(-142.662 18.9004 144.415)" fill="#B8E4DA"/>
<rect x="35.0645" y="132.655" width="186.021" height="5.74067" rx="2.87034" transform="rotate(-142.662 35.0645 132.655)" fill="#B8E4DA"/>
<rect x="190.613" y="252.927" width="186.021" height="5.74067" rx="2.87034" transform="rotate(-142.662 190.613 252.927)" fill="#B8E4DA"/>
</svg>
