<svg width="129" height="33" viewBox="0 0 129 33" fill="none" xmlns="http://www.w3.org/2000/svg">
<path d="M41.5741 25.3907L43.1665 21.6969C44.8859 22.98 47.1663 23.646 49.4216 23.646C51.0919 23.646 52.1384 23.0051 52.1384 22.0293C52.1133 19.3151 42.164 21.4411 42.091 14.6218C42.0659 11.1626 45.1412 8.49232 49.4996 8.49232C52.0894 8.49232 54.678 9.13449 56.5257 10.5994L55.0377 14.3672C53.3472 13.2885 51.2441 12.5197 49.2442 12.5197C47.8833 12.5197 46.989 13.1618 46.989 13.9796C47.0141 16.6449 57.0364 15.1849 57.1395 21.6969C57.1395 25.2339 54.1434 27.7223 49.8341 27.7223C46.6795 27.7223 43.7803 26.9785 41.5741 25.3894V25.3907ZM102.578 20.3637C102.081 21.2475 101.304 21.9417 100.368 22.3374C99.4328 22.7331 98.392 22.8079 97.4093 22.55C96.4266 22.2921 95.5576 21.7162 94.9387 20.9125C94.3198 20.1089 93.9859 19.1231 93.9896 18.1098C93.988 17.5077 94.1055 16.9111 94.3354 16.3543C94.5653 15.7975 94.9031 15.2915 95.3294 14.865C95.7558 14.4386 96.2623 14.1003 96.82 13.8693C97.3777 13.6384 97.9755 13.5195 98.5794 13.5193C100.294 13.5193 101.783 14.47 102.579 15.8522L106.961 13.4165C105.32 10.4966 102.165 8.49232 98.5794 8.49232C93.2677 8.49232 88.9634 12.8044 88.9634 18.1098C88.9634 23.4152 93.2677 27.7223 98.5794 27.7223C100.291 27.726 101.972 27.2708 103.447 26.4046C104.921 25.5383 106.135 24.2927 106.961 22.7981L102.578 20.3649V20.3637ZM59.3457 0.520389H64.8348V27.3648H59.3457V0.521642V0.520389ZM109.119 0.520389V27.3648H114.601V19.3151L121.117 27.3648H128.143L119.859 17.8013L127.528 8.87988H120.807L114.601 16.2874V0.521642H109.117L109.119 0.520389ZM81.1411 20.4176C80.3462 21.7258 78.7047 22.6953 76.857 22.6953C76.2536 22.695 75.6563 22.5761 75.0991 22.3454C74.5419 22.1147 74.0357 21.7768 73.6096 21.3509C73.1834 20.925 72.8457 20.4196 72.6155 19.8635C72.3854 19.3073 72.2675 18.7114 72.2685 18.1098C72.2673 17.5079 72.3851 16.9117 72.6151 16.3552C72.8451 15.7987 73.1828 15.2929 73.6089 14.8666C74.035 14.4403 74.5412 14.1019 75.0985 13.8707C75.6558 13.6395 76.2534 13.5201 76.857 13.5193C78.7047 13.5193 80.3462 14.5428 81.1411 15.876V20.4176ZM81.1411 8.87863V11.061C80.243 9.54588 78.0117 8.49232 75.6784 8.49232C70.8585 8.49232 67.0649 12.7505 67.0649 18.081C67.0649 23.4165 70.8585 27.7223 75.6784 27.7223C78.0117 27.7223 80.243 26.6687 81.1411 25.1599V27.341H86.6302V8.87863H81.1411ZM7.65339 20.3875C7.65339 22.2601 6.14025 23.7739 4.26736 23.7739C3.82201 23.7736 3.38109 23.6857 2.96984 23.5153C2.55859 23.3448 2.18508 23.0952 1.8707 22.7807C1.55631 22.4661 1.30721 22.0928 1.13766 21.6822C0.968108 21.2716 0.881431 20.8316 0.882589 20.3875C0.881762 19.9438 0.96871 19.5043 1.13846 19.0942C1.3082 18.684 1.55741 18.3113 1.87182 17.9973C2.18622 17.6833 2.55964 17.4343 2.97071 17.2644C3.38177 17.0945 3.8224 17.0072 4.26736 17.0073H7.65339V20.3888V20.3875ZM9.34264 20.3875C9.34181 19.9437 9.4288 19.5041 9.59862 19.0939C9.76845 18.6836 10.0178 18.3109 10.3323 17.9969C10.6468 17.6829 11.0204 17.4338 11.4316 17.264C11.8428 17.0942 12.2836 17.007 12.7287 17.0073C13.1737 17.0072 13.6145 17.0946 14.0256 17.2645C14.4368 17.4345 14.8102 17.6836 15.1247 17.9977C15.4391 18.3119 15.6883 18.6847 15.8579 19.095C16.0276 19.5053 16.1144 19.945 16.1134 20.3888V28.8498C16.1144 29.2938 16.0276 29.7336 15.858 30.1441C15.6884 30.5547 15.4393 30.9278 15.1249 31.2422C14.8105 31.5566 14.4371 31.8061 14.0259 31.9765C13.6147 32.1468 13.1739 32.2347 12.7287 32.235C12.2832 32.2349 11.8422 32.1471 11.4308 31.9767C11.0194 31.8064 10.6457 31.5568 10.3312 31.2422C10.0167 30.9276 9.76746 30.5543 9.59783 30.1436C9.4282 29.7328 9.34148 29.2928 9.34264 28.8486V20.3888V20.3875ZM12.7287 6.80286C12.2832 6.8027 11.8422 6.71493 11.4308 6.54456C11.0194 6.37419 10.6457 6.12458 10.3312 5.81002C10.0167 5.49546 9.76746 5.12213 9.59783 4.7114C9.4282 4.30067 9.34148 3.86062 9.34264 3.41642C9.34181 2.97262 9.4288 2.53301 9.59862 2.12278C9.76845 1.71255 10.0178 1.33977 10.3323 1.02577C10.6468 0.711781 11.0204 0.462754 11.4316 0.292956C11.8428 0.123157 12.2836 0.0359251 12.7287 0.0362558C13.1736 0.0360901 13.6143 0.123442 14.0253 0.293315C14.4364 0.463187 14.8098 0.712243 15.1242 1.02622C15.4386 1.3402 15.6878 1.71293 15.8576 2.12307C16.0273 2.53322 16.1143 2.97273 16.1134 3.41642V6.80286H12.7287ZM12.7287 8.52242C13.1736 8.52226 13.6143 8.60961 14.0253 8.77948C14.4364 8.94936 14.8098 9.19841 15.1242 9.51239C15.4386 9.82636 15.6878 10.1991 15.8576 10.6092C16.0273 11.0194 16.1143 11.4589 16.1134 11.9026C16.1134 13.7739 14.6003 15.289 12.7287 15.289H4.24346C3.798 15.2889 3.35695 15.2011 2.94555 15.0307C2.53416 14.8604 2.16051 14.6108 1.84598 14.2962C1.53146 13.9816 1.28225 13.6083 1.11262 13.1976C0.942993 12.7868 0.856275 12.3468 0.857433 11.9026C0.856606 11.4588 0.943595 11.0192 1.11342 10.609C1.28324 10.1987 1.53257 9.82594 1.8471 9.51194C2.16164 9.19795 2.53521 8.94892 2.94642 8.77912C3.35763 8.60933 3.79839 8.52209 4.24346 8.52242H12.7287ZM26.2942 11.9026C26.2933 11.4589 26.3803 11.0194 26.55 10.6092C26.7198 10.1991 26.969 9.82636 27.2834 9.51239C27.5978 9.19841 27.9712 8.94936 28.3823 8.77948C28.7934 8.60961 29.234 8.52226 29.679 8.52242C30.124 8.52209 30.5648 8.60933 30.976 8.77912C31.3872 8.94892 31.7608 9.19795 32.0753 9.51194C32.3898 9.82594 32.6392 10.1987 32.809 10.609C32.9788 11.0192 33.0658 11.4588 33.065 11.9026C33.065 13.7739 31.5518 15.289 29.679 15.289H26.2942V11.9026ZM24.6037 11.9026C24.6037 13.7739 23.0905 15.289 21.2189 15.289C20.7734 15.2889 20.3324 15.2011 19.921 15.0307C19.5096 14.8604 19.1359 14.6108 18.8214 14.2962C18.5069 13.9816 18.2577 13.6083 18.0881 13.1976C17.9184 12.7868 17.8317 12.3468 17.8329 11.9026V3.41642C17.832 2.97262 17.919 2.53301 18.0889 2.12278C18.2587 1.71255 18.508 1.33977 18.8225 1.02577C19.1371 0.711781 19.5107 0.462754 19.9219 0.292956C20.3331 0.123157 20.7738 0.0359251 21.2189 0.0362558C21.6639 0.0360901 22.1045 0.123442 22.5156 0.293315C22.9266 0.463187 23.3 0.712243 23.6144 1.02622C23.9289 1.3402 24.1781 1.71293 24.3478 2.12307C24.5176 2.53322 24.6045 2.97273 24.6037 3.41642V11.9026ZM21.2189 25.4684C21.664 25.4683 22.1047 25.5557 22.5158 25.7256C22.927 25.8956 23.3005 26.1447 23.6149 26.4588C23.9293 26.7729 24.1785 27.1458 24.3482 27.5561C24.5178 27.9664 24.6047 28.406 24.6037 28.8498C24.6047 29.2938 24.5179 29.7336 24.3482 30.1441C24.1786 30.5547 23.9295 30.9278 23.6151 31.2422C23.3008 31.5566 22.9273 31.8061 22.5161 31.9765C22.105 32.1468 21.6642 32.2347 21.2189 32.235C20.7734 32.2349 20.3324 32.1471 19.921 31.9767C19.5096 31.8064 19.1359 31.5568 18.8214 31.2422C18.5069 30.9276 18.2577 30.5543 18.0881 30.1436C17.9184 29.7328 17.8317 29.2928 17.8329 28.8486V25.4684H21.2189ZM21.2189 23.7739C20.7734 23.7738 20.3324 23.686 19.921 23.5156C19.5096 23.3453 19.1359 23.0957 18.8214 22.7811C18.5069 22.4665 18.2577 22.0932 18.0881 21.6825C17.9184 21.2718 17.8317 20.8317 17.8329 20.3875C17.832 19.9437 17.919 19.5041 18.0889 19.0939C18.2587 18.6836 18.508 18.3109 18.8225 17.9969C19.1371 17.6829 19.5107 17.4338 19.9219 17.264C20.3331 17.0942 20.7738 17.007 21.2189 17.0073H29.7041C30.1492 17.0072 30.5899 17.0946 31.0011 17.2645C31.4122 17.4345 31.7857 17.6836 32.1001 17.9977C32.4145 18.3119 32.6637 18.6847 32.8334 19.095C33.003 19.5053 33.0899 19.945 33.0889 20.3888C33.0899 20.8327 33.0031 21.2726 32.8334 21.6831C32.6638 22.0936 32.4147 22.4667 32.1003 22.7811C31.786 23.0955 31.4125 23.345 31.0013 23.5154C30.5902 23.6858 30.1494 23.7736 29.7041 23.7739H21.2189Z" fill="#072125"/>
</svg>
