<svg width="150" height="30" viewBox="0 0 150 30" fill="none" xmlns="http://www.w3.org/2000/svg">
<path d="M11.7495 4.5822C9.99062 4.5822 9.46294 5.35613 9.46294 7.07986V9.9293H14.1768L13.7195 14.5728H9.46294V28.6089H3.79925V14.5728H0V9.96447H3.79925V7.18539C3.79925 2.47151 5.69887 0.0090332 10.9404 0.0090332C12.031 0.0090332 13.1567 0.0793897 14.2472 0.220103V4.5822" fill="#072125"/>
<path d="M14.5635 18.6887C14.5635 13.4823 17.026 9.54236 22.2324 9.54236C25.0466 9.54236 26.7704 10.9847 27.6146 12.8139V9.9645H33.0321V28.6441H27.5795V25.8299C26.8055 27.624 25.0115 29.0311 22.1972 29.0311C17.026 29.0311 14.5283 25.1263 14.5283 19.8848L14.5635 18.6887ZM20.2272 19.9551C20.2272 22.7342 21.2474 24.5986 23.8857 24.5986C26.2075 24.5986 27.3684 22.9101 27.3684 20.2365V18.3369C27.3684 15.6634 26.1723 13.9748 23.8857 13.9748C21.2474 13.9748 20.2272 15.8041 20.2272 18.6183V19.9551Z" fill="#072125"/>
<path d="M44.7814 9.54236C46.9624 9.54236 49.0731 9.99968 50.1988 10.8088L48.9324 14.8191C47.7715 14.2562 46.4699 13.9748 45.1683 13.9748C42.1078 13.9748 40.7711 15.7337 40.7711 18.7591V19.8496C40.7711 22.8749 42.1078 24.6338 45.1683 24.6338C46.4699 24.6338 47.7715 24.3172 48.9324 23.7544L50.1988 27.7647C49.0731 28.5386 46.9976 29.0311 44.7814 29.0311C38.1327 29.0311 35.1426 25.4781 35.1426 19.744V18.8646C35.1426 13.1305 38.1327 9.54236 44.7814 9.54236Z" fill="#072125"/>
<path d="M50.9375 19.9903V18.3369C50.9375 13.025 53.9628 9.54236 60.119 9.54236C65.9234 9.54236 68.4914 13.0602 68.4914 18.2666V21.2567H56.6012C56.7067 23.8247 57.8676 24.9504 60.9985 24.9504C63.0388 24.9504 65.0791 24.5635 67.0139 23.8247L68.0341 27.6943C66.5566 28.4683 63.4961 29.0663 60.7874 29.0663C53.611 29.0311 50.9375 25.4781 50.9375 19.9903ZM56.6012 17.5278H63.4258V17.0705C63.4258 15.0302 62.6166 13.412 60.119 13.412C57.5862 13.412 56.6012 15.0302 56.6012 17.5278Z" fill="#072125"/>
<path d="M89.4579 19.8847C89.4579 25.0911 86.9603 29.031 81.7539 29.031C78.9396 29.031 76.9696 27.6239 76.1957 25.8298V28.6441H70.8486V0.571841L76.5123 0.0793457V12.5676C77.3214 10.9142 79.1507 9.57747 81.7891 9.57747C86.9603 9.57747 89.4931 13.4823 89.4931 18.7238L89.4579 19.8847ZM83.7942 18.5831C83.7942 15.9447 82.7741 13.9747 80.0653 13.9747C77.7436 13.9747 76.5123 15.6281 76.5123 18.3017V20.2717C76.5123 22.9452 77.7787 24.5986 80.0653 24.5986C82.7741 24.5986 83.7942 22.6286 83.7942 19.9902V18.5831Z" fill="#072125"/>
<path d="M91.3223 19.744V18.7942C91.3223 13.412 94.3828 9.54236 100.609 9.54236C106.836 9.54236 109.897 13.412 109.897 18.7942V19.744C109.897 25.1263 106.836 28.9959 100.609 28.9959C94.3828 28.9959 91.3223 25.1615 91.3223 19.744ZM104.268 18.4073C104.268 15.9448 103.248 13.9748 100.609 13.9748C97.971 13.9748 96.9508 15.9448 96.9508 18.4073V20.1662C96.9508 22.6287 97.971 24.5986 100.609 24.5986C103.248 24.5986 104.268 22.6287 104.268 20.1662V18.4073Z" fill="#072125"/>
<path d="M111.831 19.744V18.7942C111.831 13.412 114.892 9.54236 121.118 9.54236C127.345 9.54236 130.405 13.412 130.405 18.7942V19.744C130.405 25.1263 127.345 28.9959 121.118 28.9959C114.892 28.9959 111.831 25.1615 111.831 19.744ZM124.777 18.4073C124.777 15.9448 123.756 13.9748 121.118 13.9748C118.48 13.9748 117.46 15.9448 117.46 18.4073V20.1662C117.46 22.6287 118.48 24.5986 121.118 24.5986C123.756 24.5986 124.777 22.6287 124.777 20.1662V18.4073Z" fill="#072125"/>
<path d="M138.18 18.8645L143.774 9.92928H149.754L143.914 19.1812L150 28.6441H143.985L138.18 19.4978V28.6441H132.552V0.571863L138.18 0.0441895" fill="#072125"/>
</svg>
